<svg xmlns="http://www.w3.org/2000/svg" width="810" height="810" viewBox="0 0 810 810">
  <g id="design" transform="translate(810 810) rotate(180)">
    <g id="Rectangle_3" data-name="Rectangle 3" transform="translate(250 530) rotate(180)" fill="#9adbdb" stroke="#707070" stroke-width="1" opacity="0.999">
      <rect width="250" height="250" rx="40" stroke="none"/>
      <rect x="0.5" y="0.5" width="249" height="249" rx="39.5" fill="none"/>
    </g>
    <g id="Rectangle_5" data-name="Rectangle 5" transform="translate(530 530) rotate(180)" fill="#3c2f2f" stroke="#707070" stroke-width="1">
      <rect width="250" height="250" rx="125" stroke="none"/>
      <rect x="0.5" y="0.5" width="249" height="249" rx="124.5" fill="none"/>
    </g>
    <g id="Rectangle_7" data-name="Rectangle 7" transform="translate(810 530) rotate(180)" fill="#9adbdb" stroke="#707070" stroke-width="1">
      <rect width="250" height="250" rx="40" stroke="none"/>
      <rect x="0.5" y="0.5" width="249" height="249" rx="39.5" fill="none"/>
    </g>
    <g id="Rectangle_8" data-name="Rectangle 8" transform="translate(810 250) rotate(180)" fill="#fff" stroke="#707070" stroke-width="1" opacity="0.499">
      <rect width="250" height="250" rx="40" stroke="none"/>
      <rect x="0.5" y="0.5" width="249" height="249" rx="39.5" fill="none"/>
    </g>
    <g id="Rectangle_12" data-name="Rectangle 12" transform="translate(810 810) rotate(180)" fill="#fff" stroke="#707070" stroke-width="1" opacity="0.499">
      <rect width="250" height="250" rx="40" stroke="none"/>
      <rect x="0.5" y="0.5" width="249" height="249" rx="39.5" fill="none"/>
    </g>
    <g id="Rectangle_6" data-name="Rectangle 6" transform="translate(530 250) rotate(180)" fill="#9adbdb" stroke="#707070" stroke-width="1">
      <rect width="250" height="250" rx="40" stroke="none"/>
      <rect x="0.5" y="0.5" width="249" height="249" rx="39.5" fill="none"/>
    </g>
    <g id="Rectangle_11" data-name="Rectangle 11" transform="translate(530 810) rotate(180)" fill="#9adbdb" stroke="#707070" stroke-width="1">
      <rect width="250" height="250" rx="40" stroke="none"/>
      <rect x="0.5" y="0.5" width="249" height="249" rx="39.5" fill="none"/>
    </g>
    <g id="Rectangle_9" data-name="Rectangle 9" transform="translate(250 250) rotate(180)" fill="#21b7b7" stroke="#707070" stroke-width="1" opacity="0.998">
      <rect width="250" height="250" rx="40" stroke="none"/>
      <rect x="0.5" y="0.5" width="249" height="249" rx="39.5" fill="none"/>
    </g>
    <g id="Rectangle_10" data-name="Rectangle 10" transform="translate(250 810) rotate(180)" fill="#21b7b7" stroke="#707070" stroke-width="1">
      <rect width="250" height="250" rx="40" stroke="none"/>
      <rect x="0.5" y="0.5" width="249" height="249" rx="39.5" fill="none"/>
    </g>
  </g>
</svg>
